<?xml version="1.0" encoding="utf-8"?>
<!-- Generator: Adobe Illustrator 24.3.0, SVG Export Plug-In . SVG Version: 6.00 Build 0)  -->
<svg version="1.1" id="Layer_1" xmlns="http://www.w3.org/2000/svg" xmlns:xlink="http://www.w3.org/1999/xlink" x="0px" y="0px"
	 viewBox="0 0 902.39 187.32" style="enable-background:new 0 0 902.39 187.32;" xml:space="preserve">
<style type="text/css">
	.st0{fill:#83D45E;}
	.st1{fill:#FFFFFF;}
</style>
<g>
	<g>
		<path class="st0" d="M170.8,5.01v49.25c-0.02-0.08-0.03-0.18-0.04-0.26c-6.26-41.95-39.03-48.1-47.27-48.98H170.8z"/>
		<path class="st0" d="M170.8,66.27V178.3H6.94L99.9,85.99l6.68,7.94l12.94-43.48l-45.49,9.62L82.36,68l-52.58,52.27l0.42-90.74
			l81.39,0.41c21.07-0.2,27.96,12.55,27.96,12.55c16.74,23.71-4.3,46.31-10.19,51.66c-1.36,1.24-2.22,2.35-3.52,3.66l-39.3,38.35
			l48.41-13.39C161.38,97.74,168.93,77.93,170.8,66.27z"/>
	</g>
</g>
<g>
	<g>
		<path d="M261.21,66.85c-2.64-4.05-6.38-7.17-11.24-9.35c-4.84-2.17-10.62-3.26-17.31-3.26h-32.39v74.84h17.31v-20.64h15.08
			c6.69,0,12.47-1.08,17.31-3.26c4.86-2.17,8.59-5.29,11.24-9.35c2.63-4.07,3.96-8.88,3.96-14.43
			C265.16,75.76,263.83,70.91,261.21,66.85z M217.57,102.56l-0.93-1l0.93-0.93V102.56z M243.67,90.9
			c-2.64,2.29-6.63,3.43-11.98,3.43h-14.12V68.35h14.12c5.35,0,9.34,1.14,11.98,3.42c2.63,2.28,3.96,5.49,3.96,9.62
			C247.63,85.46,246.3,88.62,243.67,90.9z"/>
		<path d="M327.02,105.08c0.05-0.02,0.09-0.05,0.14-0.06c4.86-2.14,8.59-5.22,11.24-9.24c2.63-4.04,3.96-8.83,3.96-14.39
			c0-5.63-1.33-10.48-3.96-14.54c-2.64-4.05-6.38-7.17-11.24-9.35c-4.84-2.17-10.62-3.26-17.31-3.26h-32.39v74.84h17.31v-20.84
			h15.08c0.27,0,0.54,0,0.81-0.02l14.37,20.86h18.71L327.02,105.08z M320.87,90.96c-2.64,2.31-6.63,3.47-11.98,3.47h-14.12V68.35
			h14.12c5.35,0,9.34,1.14,11.98,3.42c2.63,2.28,3.96,5.49,3.96,9.62C324.82,85.46,323.49,88.64,320.87,90.96z"/>
		<path d="M392.39,130.36c-5.92,0-11.39-0.96-16.41-2.89c-5.03-1.92-9.37-4.63-13.04-8.12c-3.67-3.49-6.52-7.59-8.55-12.3
			c-2.03-4.7-3.05-9.84-3.05-15.4c0-5.56,1.02-10.69,3.05-15.4c2.03-4.7,4.9-8.8,8.61-12.3c3.71-3.49,8.05-6.2,13.04-8.13
			c4.99-1.92,10.41-2.89,16.25-2.89c5.92,0,11.35,0.96,16.3,2.89c4.95,1.92,9.27,4.63,12.94,8.13c3.67,3.49,6.54,7.57,8.61,12.24
			c2.07,4.67,3.1,9.82,3.1,15.45c0,5.56-1.03,10.71-3.1,15.45c-2.07,4.74-4.94,8.84-8.61,12.3c-3.67,3.46-7.98,6.15-12.94,8.07
			C403.63,129.4,398.23,130.36,392.39,130.36z M392.28,115.6c3.35,0,6.43-0.57,9.25-1.71c2.82-1.14,5.29-2.78,7.43-4.92
			c2.14-2.14,3.8-4.67,4.97-7.59c1.18-2.92,1.76-6.16,1.76-9.73s-0.59-6.81-1.76-9.73c-1.18-2.92-2.82-5.45-4.92-7.59
			c-2.1-2.14-4.58-3.78-7.43-4.92c-2.85-1.14-5.95-1.71-9.3-1.71c-3.35,0-6.43,0.57-9.25,1.71c-2.82,1.14-5.29,2.78-7.43,4.92
			c-2.14,2.14-3.8,4.67-4.97,7.59c-1.18,2.92-1.76,6.17-1.76,9.73c0,3.49,0.59,6.72,1.76,9.67c1.18,2.96,2.81,5.51,4.92,7.65
			c2.1,2.14,4.58,3.78,7.43,4.92C385.83,115.04,388.93,115.6,392.28,115.6z"/>
		<polygon points="463.6,68.13 463.6,87.91 498.24,87.91 498.24,101.82 463.6,101.82 463.6,129.07 446.27,129.07 446.27,54.23 
			502.83,54.23 502.83,68.13 		"/>
		<path d="M514.59,129.08V54.23h17.32v74.84H514.59z"/>
		<path d="M565.16,129.08V68.35h-23.95V54.23h65.22v14.11h-23.95v60.73H565.16z"/>
		<polygon points="730.35,129.07 714.1,129.07 714,84.14 691.96,121.16 684.16,121.16 662.24,85.12 662.24,129.07 645.99,129.07 
			645.99,54.23 660.31,54.23 688.35,100.71 715.9,54.23 730.13,54.23 		"/>
		<path d="M820.43,125.15l-2.85,3.92h4.61L820.43,125.15z"/>
		<path d="M788.72,54.23h-17.11l-33.36,74.84h17.76l6.66-16.03h34.69l6.65,16.03h13.58l2.85-3.92L788.72,54.23z M768.14,99.89
			l11.92-28.64l11.85,28.64H768.14z"/>
		<path d="M865.37,90.38l26.1-36.15h-18.82L855.8,78.46l-17.15-24.23h-19.67l26.25,36.73l-24.8,34.18l-2.85,3.92h19.89l17.77-26
			l18.04,26h20L865.37,90.38z"/>
	</g>
</g>
</svg>
